<?xml version="1.0" standalone="no"?>
<!DOCTYPE svg PUBLIC "-//W3C//DTD SVG 20010904//EN"
 "http://www.w3.org/TR/2001/REC-SVG-20010904/DTD/svg10.dtd">
<svg version="1.0" xmlns="http://www.w3.org/2000/svg"
 width="512.000000pt" height="512.000000pt" viewBox="0 0 512.000000 512.000000"
 preserveAspectRatio="xMidYMid meet">

<g transform="translate(0.000000,512.000000) scale(0.100000,-0.100000)"
fill="#000000" stroke="none">
<path d="M2450 4999 c-25 -4 -97 -12 -160 -18 -275 -23 -581 -111 -839 -240
-699 -351 -1187 -986 -1342 -1745 -116 -570 -18 -1217 259 -1701 312 -545 780
-947 1327 -1140 44 -16 84 -32 89 -37 24 -20 85 3 127 48 l24 26 3 259 3 260
-53 -8 c-29 -4 -127 -7 -218 -7 -135 1 -180 5 -245 23 -162 44 -264 134 -334
297 -74 173 -154 279 -273 360 -56 39 -101 96 -92 117 8 22 31 28 101 28 68 0
124 -18 202 -65 78 -48 131 -102 200 -204 70 -104 149 -180 229 -218 99 -48
299 -45 436 6 l52 20 12 61 c15 79 60 176 107 228 21 23 36 43 34 45 -2 2 -56
11 -119 20 -268 41 -469 119 -639 250 -137 106 -230 247 -299 453 -56 166 -67
244 -66 488 0 210 1 224 27 308 36 116 92 225 161 315 l57 73 -22 67 c-44 140
-36 350 20 517 l26 80 75 -1 c115 -1 324 -79 509 -191 l106 -65 116 26 c332
74 686 74 1018 0 l117 -26 94 58 c176 107 379 191 486 201 102 9 107 6 137
-94 14 -49 31 -119 38 -157 16 -96 6 -263 -20 -348 l-22 -67 57 -73 c70 -91
126 -201 160 -315 22 -74 27 -114 31 -249 13 -398 -86 -719 -282 -919 -179
-182 -454 -301 -787 -340 -32 -4 -58 -10 -58 -12 0 -3 16 -23 35 -44 42 -46
79 -119 102 -196 14 -49 18 -128 22 -505 6 -432 7 -447 27 -474 38 -51 95 -75
132 -54 9 5 66 28 125 50 527 194 990 598 1289 1125 353 624 405 1448 134
2123 -235 584 -655 1041 -1217 1323 -254 127 -554 214 -826 239 -59 6 -138 15
-176 20 -76 11 -151 11 -217 -1z"/>
</g>
</svg>
